<svg width="14" height="15" viewBox="0 0 14 15" fill="none" xmlns="http://www.w3.org/2000/svg">
<path d="M1.30586 12.0625C1.30586 13.0102 1.88589 13.7812 2.59961 13.7812C2.75785 13.7779 2.9138 13.7396 3.05799 13.6687C3.20219 13.5978 3.33161 13.4957 3.43839 13.3687C3.51833 13.2831 3.62586 13.2346 3.73812 13.2338C3.85039 13.2329 3.95854 13.2797 4.0396 13.3641C4.12065 13.4485 4.16822 13.564 4.17218 13.686C4.17614 13.8079 4.1362 13.9267 4.06083 14.0172C3.87406 14.2361 3.64811 14.4113 3.39684 14.5319C3.14558 14.6526 2.87429 14.7161 2.59961 14.7188C1.4108 14.7188 0.443359 13.5273 0.443359 12.0625C0.443359 10.5977 1.4108 9.40625 2.59961 9.40625C2.87439 9.40906 3.14575 9.47288 3.39702 9.59379C3.64829 9.71471 3.87418 9.89015 4.06083 10.1094C4.1362 10.1998 4.17614 10.3187 4.17218 10.4406C4.16822 10.5626 4.12065 10.678 4.0396 10.7625C3.95854 10.8469 3.85039 10.8937 3.73812 10.8928C3.62586 10.8919 3.51833 10.8435 3.43839 10.7578C3.33176 10.6305 3.2024 10.5282 3.0582 10.457C2.91399 10.3858 2.75796 10.3473 2.59961 10.3438C1.88589 10.3438 1.30586 11.1141 1.30586 12.0625ZM7.13133 11.5336C6.35077 11.2891 6.16748 11.1672 6.19695 10.9156C6.20108 10.8366 6.2219 10.7597 6.2578 10.6909C6.2937 10.6221 6.34371 10.5632 6.40395 10.5188C6.80645 10.2227 7.67326 10.3766 7.94567 10.4531C8.05523 10.4816 8.1707 10.4624 8.26739 10.3995C8.36407 10.3367 8.43429 10.2352 8.46302 10.1168C8.49176 9.99841 8.47672 9.87249 8.42114 9.76598C8.36556 9.65947 8.27385 9.58083 8.16561 9.54688C8.02186 9.50547 6.72092 9.15625 5.92239 9.74063C5.76025 9.85999 5.6242 10.0166 5.52385 10.1994C5.4235 10.3822 5.3613 10.5867 5.34164 10.7984C5.21227 11.907 6.22283 12.2242 6.89198 12.4344C7.76311 12.7078 7.9543 12.8508 7.91261 13.1969C7.90892 13.2798 7.88751 13.3607 7.85008 13.4331C7.81266 13.5055 7.76024 13.5675 7.69698 13.6141C7.29376 13.9055 6.44061 13.7422 6.17395 13.6625C6.06714 13.6385 5.95593 13.6594 5.86272 13.7209C5.7695 13.7825 5.70121 13.8802 5.6716 13.9943C5.64198 14.1084 5.65325 14.2304 5.70311 14.3359C5.75298 14.4413 5.83776 14.5223 5.94036 14.5625C6.28469 14.6622 6.63915 14.7147 6.99548 14.7188C7.39008 14.7188 7.82492 14.6445 8.17136 14.3953C8.33796 14.2745 8.47791 14.1151 8.58117 13.9286C8.68444 13.742 8.74846 13.533 8.76864 13.3164C8.91311 12.093 7.84073 11.7563 7.13133 11.5328V11.5336ZM13.097 9.43359C13.0436 9.41287 12.9871 9.40376 12.9305 9.4068C12.8739 9.40983 12.8185 9.42495 12.7673 9.45128C12.7161 9.47762 12.6702 9.51465 12.6321 9.56028C12.5941 9.6059 12.5647 9.65922 12.5457 9.71719L11.5121 12.8555L10.4807 9.71875C10.4638 9.65808 10.4358 9.60176 10.3983 9.5532C10.3608 9.50464 10.3147 9.46485 10.2626 9.43623C10.2106 9.40762 10.1537 9.39077 10.0955 9.38671C10.0374 9.38265 9.979 9.39146 9.92403 9.41262C9.86905 9.43377 9.81859 9.46682 9.77571 9.50977C9.73282 9.55273 9.69839 9.60469 9.67451 9.66252C9.65063 9.72034 9.63778 9.78284 9.63675 9.84622C9.63572 9.90959 9.64653 9.97254 9.66852 10.0312L11.106 14.4062C11.1359 14.4973 11.191 14.576 11.2637 14.6317C11.3364 14.6874 11.4232 14.7172 11.5121 14.7172C11.601 14.7172 11.6878 14.6874 11.7605 14.6317C11.8332 14.576 11.8883 14.4973 11.9182 14.4062L13.3557 10.0312C13.3939 9.91408 13.3878 9.7852 13.3386 9.67297C13.2894 9.56075 13.2012 9.47436 13.0934 9.43281L13.097 9.43359ZM13.3809 4.875V6.75C13.3809 6.87432 13.3354 6.99355 13.2545 7.08146C13.1737 7.16936 13.064 7.21875 12.9496 7.21875C12.8352 7.21875 12.7255 7.16936 12.6447 7.08146C12.5638 6.99355 12.5184 6.87432 12.5184 6.75V5.34375H8.92461C8.81023 5.34375 8.70054 5.29436 8.61967 5.20646C8.53879 5.11855 8.49336 4.99932 8.49336 4.875V0.96875H2.02461C1.98648 0.96875 1.94992 0.985212 1.92296 1.01451C1.896 1.04382 1.88086 1.08356 1.88086 1.125V6.75C1.88086 6.87432 1.83542 6.99355 1.75455 7.08146C1.67367 7.16936 1.56398 7.21875 1.44961 7.21875C1.33523 7.21875 1.22554 7.16936 1.14467 7.08146C1.06379 6.99355 1.01836 6.87432 1.01836 6.75V1.125C1.01836 0.834919 1.12437 0.55672 1.31308 0.351602C1.50179 0.146484 1.75774 0.03125 2.02461 0.03125H8.92461C9.03894 0.0313594 9.14856 0.0808172 9.22936 0.16875L13.2544 4.54375C13.3353 4.63157 13.3808 4.75072 13.3809 4.875ZM11.9081 4.40625L9.35586 1.63125V4.40625H11.9081Z" fill="black"/>
</svg>
