<svg width="13" height="16" viewBox="0 0 13 16" fill="none" xmlns="http://www.w3.org/2000/svg">
<path fill-rule="evenodd" clip-rule="evenodd" d="M2.8 12H2V13H2.8C3.1 13 3.3 12.8 3.3 12.5C3.3 12.2 3.1 12 2.8 12ZM8 0H0V16H13V5L8 0ZM4.2 12.6C4.2 13.4 3.6 14 2.8 14H2V15H1V11H2.8C3.6 11 4.2 11.6 4.2 12.4V12.6ZM8.3 13.1C8.3 14.1 7.5 15 6.4 15H5V11H6.4C7.4 11 8.3 11.8 8.3 12.9V13.1ZM12 12H10V13H11.5V14H10V15H9V11H12V12ZM12 10H1V1H8V5H12V10ZM6.4 12H6V14H6.4C7 14 7.4 13.6 7.4 13C7.4 12.4 6.9 12 6.4 12Z" fill="black"/>
</svg>
