<svg width="22" height="22" viewBox="0 0 22 22" fill="none" xmlns="http://www.w3.org/2000/svg">
<path fill-rule="evenodd" clip-rule="evenodd" d="M10.8333 7.5806e-08C9.9764 7.5806e-08 9.15415 0.340167 8.54749 0.946833L7.58007 1.91425C7.37901 2.11255 7.10846 2.2245 6.82607 2.22625H5.45999C5.03528 2.22611 4.61472 2.30965 4.22231 2.47211C3.82991 2.63458 3.47337 2.87277 3.17306 3.17308C2.87275 3.47339 2.63456 3.82993 2.4721 4.22233C2.30964 4.61473 2.22609 5.0353 2.22624 5.46V6.82717C2.22448 7.10956 2.11253 7.3801 1.91424 7.58117L0.946819 8.54858C0.340581 9.15482 0 9.97706 0 10.8344C0 11.6918 0.340581 12.514 0.946819 13.1202L1.91424 14.0877C2.11253 14.2887 2.22448 14.5593 2.22624 14.8417V16.2088C2.22624 17.0662 2.56682 17.8884 3.17306 18.4947C3.7793 19.1009 4.60155 19.4415 5.4589 19.4415H6.82607C7.10882 19.4415 7.38074 19.5542 7.58007 19.7535L8.54749 20.7209C9.15373 21.3272 9.97597 21.6677 10.8333 21.6677C11.6907 21.6677 12.5129 21.3272 13.1192 20.7209L14.0866 19.7535C14.2876 19.5552 14.5582 19.4432 14.8406 19.4415H16.2077C17.0651 19.4415 17.8873 19.1009 18.4936 18.4947C19.0998 17.8884 19.4404 17.0662 19.4404 16.2088V14.8417C19.4404 14.5589 19.5531 14.287 19.7524 14.0877L20.7198 13.1202C21.3261 12.514 21.6666 11.6918 21.6666 10.8344C21.6666 9.97706 21.3261 9.15482 20.7198 8.54858L19.7524 7.58117C19.5541 7.3801 19.4422 7.10956 19.4404 6.82717V5.46C19.4404 4.60264 19.0998 3.7804 18.4936 3.17416C17.8873 2.56792 17.0651 2.22733 16.2077 2.22733H14.8406C14.5582 2.22558 14.2876 2.11363 14.0866 1.91533L13.1192 0.947917C12.8192 0.647348 12.4629 0.408906 12.0707 0.246247C11.6784 0.0835879 11.2579 -9.19411e-05 10.8333 7.5806e-08ZM14.8232 8.37417C14.9291 8.2748 15.0138 8.15517 15.0725 8.0224C15.1312 7.88963 15.1626 7.74642 15.1648 7.60128C15.1671 7.45613 15.1402 7.31202 15.0856 7.17749C15.0311 7.04296 14.9501 6.92076 14.8474 6.81815C14.7447 6.71554 14.6225 6.63462 14.4879 6.58018C14.3533 6.52574 14.2092 6.49891 14.0641 6.50126C13.9189 6.50362 13.7757 6.53512 13.643 6.5939C13.5103 6.65268 13.3907 6.73753 13.2914 6.84342L8.68399 11.4508L7.30057 10.0674C7.09744 9.86414 6.82187 9.74988 6.53449 9.74978C6.24712 9.74968 5.97147 9.86374 5.76819 10.0669C5.56492 10.27 5.45066 10.5456 5.45056 10.8329C5.45046 11.1203 5.56452 11.396 5.76765 11.5992L7.91807 13.7486C8.12122 13.9517 8.39672 14.0658 8.68399 14.0658C8.97125 14.0658 9.24675 13.9517 9.4499 13.7486L14.8232 8.37525V8.37417Z" fill="#28A745"/>
</svg>
